<svg version="1.1" id="Layer_1" xmlns="http://www.w3.org/2000/svg" x="0" y="0" viewBox="0 0 30 30" style="enable-background:new 0 0 30 30" xml:space="preserve"><style>.st0,.st2,.st3{fill:#fff;stroke:#e6e7e8;stroke-width:.1312;stroke-miterlimit:10}.st2,.st3{stroke-linecap:round}.st3{stroke-linejoin:round}</style><switch><g><path class="st0" d="m7.16 29.99-.02-.16V26.3c0-1.14.98-2.06 2.2-2.06 1.21 0 2.2.92 2.2 2.06v3.52h1.6V26.3c0-1.14.86-2.06 1.92-2.06s1.92.92 1.92 2.06v3.52h1.6V26.3c0-1.14.98-2.06 2.2-2.06 1.21 0 2.2.92 2.2 2.06V30M1.56 27.15c1.65 2.17 4.18 2.82 4.18 2.82h5.9l10.8-.01 1.29.01c2.27.07 4.55-2.65 4.55-2.65 1.62-2.17 1.7-4.83 1.7-4.83L30 9.58V7.92h-1.56v.28H23.5l-.15-1.8h-1.67l-.1-3.76c-.2-.39-.86 0-.86 0v.56-.01s.07-1.75-1.43-2.28C18.89.77 16.98.5 16.98.5L15.04.34h-.06l-1.6.17-2.85.38C8.7 1.2 8.92 3.26 8.92 3.26v-.4c-.15-.39-.81-.05-.81-.05l-.1 3.82H6.59l-.1 1.57H1.58v-.28H.03v1.66l.02 13.88s.58 2.45 1.51 3.69zm1.92-15.64h1.47v2.58H3.48v-2.58zM2.7 25.33H1.24v-.53H2.7v.53zm-1.46 1.35v-.82H2.7v2.03h-.48m.59-4.96H1.37V20.5c0-.5.32-.91.72-.91.4 0 .72.41.72.91v2.43zm.09-5.41H1.43v-2.58H2.9v2.58zm0-3.42H1.43v-2.58H2.9v2.58zm.58.84h1.47v2.58H3.48v-2.58zm.07 5.56c0-.5.32-.91.72-.91.4 0 .72.41.72.91v2.43H3.55V20.5zm1.72 7.39H3.81v-2.03h1.46v2.03zm0-2.56H3.81v-.53h1.46v.53zm4.94-15h1.47v2.58h-1.47v-2.58zm-.62 11.82H8.15v-2.43c0-.5.32-.91.72-.91.4 0 .72.41.72.91v2.43zm.04-5.81H8.16v-2.58h1.47v2.58zm0-3.42H8.16v-2.58h1.47v2.58zm.58.84h1.47v2.58h-1.47v-2.58zm1.56 8.39h-1.44v-2.43c0-.5.32-.91.72-.91.4 0 .72.41.72.91v2.43zm1.43-11.82h1.47v2.58H13.2v-2.58zm0 3.43h1.47v2.58H13.2v-2.58zm1.71 8.39h-1.44v-2.43c0-.5.32-.91.72-.91.4 0 .72.41.72.91v2.43zm5.38-11.82h1.47v2.58h-1.47v-2.58zm-2.05 0h1.47v2.58h-1.47v-2.58zm-2.99 0h1.47v2.58h-1.47v-2.58zm0 3.43h1.47v2.58h-1.47v-2.58zm1.84 8.39h-1.44v-2.43c0-.5.32-.91.72-.91.4 0 .72.41.72.91v2.43zm1.15-5.81v-2.58h1.47v2.58h-1.47zm1.83 5.81h-1.44v-2.43c0-.5.32-.91.72-.91.4 0 .72.41.72.91v2.43zm.22-5.81v-2.58h1.47v2.58h-1.47zm1.96 5.81h-1.44v-2.43c0-.5.32-.91.72-.91.4 0 .72.41.72.91v2.43zm4.88-10.64h1.47v2.58h-1.47v-2.58zm-2.05 0h1.47v2.58h-1.47v-2.58zm0 3.43h1.47v2.58h-1.47v-2.58zm1.15 12.98h-1.46v-2.03h1.46v2.03zm0-2.56h-1.46v-.53h1.46v.53zm.32-2.43h-1.44V20.5c0-.5.32-.91.72-.91.4 0 .72.41.72.91v2.43zm.58-7.99h1.47v2.58h-1.47v-2.58zm.15 5.56c0-.5.32-.91.72-.91s.72.41.72.91v2.43h-1.44V20.5zm.43 7.42h-.37v-2.03h1.46v.63c-.49.91-1.09 1.4-1.09 1.4zm1.09-2.56h-1.46v-.53h1.46v.53z"/><path class="st0" d="M7.81 12.92h4.23v.45H7.81zM12.85 12.92h4.23v.45h-4.23zM7.81 16.34h4.23v.45H7.81zM12.85 16.34h4.23v.45h-4.23zM17.88 12.92h4.23v.45h-4.23zM17.88 16.34h4.23v.45h-4.23zM1.08 14.1h4.23v.45H1.08zM1.08 17.52h4.23v.45H1.08zM24.72 14.1h4.23v.45h-4.23zM24.72 17.52h4.23v.45h-4.23zM5.84 8.92h18.47M5.84 9.29h18.47M5.84 9.65h18.47M.07 9.26h5.66M.07 9.62h5.66M.07 9.99h5.66"/><path style="fill:none;stroke:#e6e7e8;stroke-width:.1312;stroke-miterlimit:10" d="M24.33 29.82V8.19H5.77v21.63"/><path class="st0" d="M6.57 7.19h3.92V8.2M23.4 7.19h-3.85V8.2M9.53 7.13V6.09h10.91v1.04M9.53 6.51h10.93M8.06 4.77h13.57M8.06 3.37h13.57M9.68 3.42v1.35M10.34 3.42v1.35M11 3.42v1.35M11.66 3.42v1.35M12.31 3.42v1.35M12.97 3.42v1.35M13.63 3.42v1.35M14.29 3.42v1.35M14.95 3.42v1.35M15.6 3.42v1.35M16.26 3.42v1.35M16.92 3.42v1.35M17.58 3.42v1.35M18.24 3.42v1.35M18.89 3.42v1.35M19.55 3.42v1.35M20.21 3.42v1.35M29.96 9.26h-5.67M24.29 9.62h5.67M29.96 9.99h-5.67M24.29 24.14h2.26v.64h.46v-.64h2.17v.71h.37M24.28 22.94h5.7v.52h-5.7zM5.77 22.19h18.56v.52H5.77zM.05 22.94h5.7v.52H.05zM5.73 24.14H3.48v.64h-.47v-.64H.85v.71H.43"/><path class="st2" d="M16.86 27.54h1.87M22.76 27.55h1.76M5.54 27.58h1.77"/><path class="st3" d="m16.87 29.96 1.85.02v-.51h-1.85zM5.52 29.88l1.77.07.02-.48-1.8.02zM16.87 27.3l1.85.02v-.47h-1.85z"/><path class="st2" d="M11.33 27.54h1.95"/><path class="st3" d="m11.34 29.92 2.03.01v-.46h-2.03zM11.34 27.3l1.99.02v-.47h-1.99zM22.77 27.31l1.74.02v-.47h-1.74zM5.55 27.34l1.75.01v-.46H5.55z"/><path class="st0" d="M6.29 26.85c0-1.88 1.37-3.4 3.05-3.4 1.69 0 3.05 1.52 3.05 3.4v-.01M17.73 26.85c0-1.88 1.37-3.4 3.05-3.4 1.69 0 3.05 1.52 3.05 3.4v-.01M12.39 26.85c0-1.88 1.19-3.4 2.67-3.4s2.67 1.52 2.67 3.4v-.01"/><path class="st3" d="m22.71 29.93 1.82-.02-.01-.43h-1.81z"/><path class="st0" d="M25.08 21.33h1.47M27.26 21.33h1.47M18.6 20.54h1.47M20.78 20.54h1.47M13.44 20.54h1.47M15.62 20.54h1.47M8.13 20.54h1.46M10.3 20.54h1.47M1.34 21.33h1.47M3.52 21.33h1.47M1.39 26.9H2.7M1.96 24.81v.53M1.96 25.86v1.73M3.81 26.9h1.46M4.53 24.8v.54M4.53 25.86v2.03M24.77 26.89h1.46M25.5 24.79v.59M25.5 25.86v2.05M27.34 26.9h1.22M28.06 24.79v.59M28.06 25.86v1.72M20.68 2.86v.39s.22-2.06-1.56-2.38L16.33.5 14.76.33h.12L13.31.5l-2.79.38c-1.77.32-1.56 2.38-1.56 2.38v-.4"/><path class="st0" d="M15.53.2v.61h-1.21V.16s.7-.39 1.21.04z"/></g></switch></svg>